<?xml version="1.0" encoding="UTF-8"?>
<svg id="Layer_1" data-name="Layer 1" xmlns="http://www.w3.org/2000/svg" viewBox="0 0 695.94 524.07">
  <defs>
    <style>
      .cls-1, .cls-2, .cls-3 {
        font-family: ABCMonumentGrotesk-Regular, 'ABC Monument Grotesk';
      }

      .cls-1, .cls-2, .cls-3, .cls-4, .cls-5, .cls-6, .cls-7 {
        fill: #1d1d1b;
      }

      .cls-1, .cls-5 {
        font-size: 33px;
      }

      .cls-2, .cls-4 {
        font-size: 32.67px;
      }

      .cls-3, .cls-7 {
        font-size: 37.19px;
      }

      .cls-4, .cls-5, .cls-7 {
        font-family: ABCMonumentGrotesk-Regular-in-Evolution-4, 'ABC Monument Grotesk-in Evolution 4';
      }

      .cls-8 {
        letter-spacing: 0em;
      }

      .cls-9 {
        letter-spacing: 0em;
      }

      .cls-10 {
        letter-spacing: 0em;
      }

      .cls-11 {
        letter-spacing: -.08em;
      }

      .cls-12 {
        letter-spacing: -.11em;
      }

      .cls-13 {
        letter-spacing: -.03em;
      }

      .cls-14 {
        letter-spacing: -.03em;
      }

      .cls-15 {
        letter-spacing: -.02em;
      }

      .cls-16 {
        letter-spacing: -.02em;
      }

      .cls-17 {
        letter-spacing: -.02em;
      }

      .cls-18 {
        letter-spacing: -.02em;
      }

      .cls-19 {
        letter-spacing: -.05em;
      }

      .cls-20 {
        letter-spacing: -.05em;
      }

      .cls-21 {
        letter-spacing: -.05em;
      }

      .cls-22 {
        letter-spacing: -.03em;
      }

      .cls-23 {
        letter-spacing: -.03em;
      }

      .cls-24 {
        letter-spacing: 0em;
      }

      .cls-25 {
        letter-spacing: 0em;
      }

      .cls-26 {
        letter-spacing: 0em;
      }

      .cls-27 {
        letter-spacing: -.01em;
      }

      .cls-28 {
        letter-spacing: -.01em;
      }

      .cls-29 {
        letter-spacing: -.01em;
      }

      .cls-30 {
        letter-spacing: -.01em;
      }

      .cls-31 {
        letter-spacing: 0em;
      }

      .cls-32 {
        letter-spacing: 0em;
      }

      .cls-33 {
        letter-spacing: 0em;
      }
    </style>
  </defs>
  <text class="cls-7" transform="translate(209.24 254.61)"><tspan x="0" y="0">E</tspan></text>
  <path class="cls-6" d="M228.76,236.01h3.35v6.06c.93-3.76,3.83-6.51,6.95-6.51.78,0,1.56.15,2.31.41l-.74,3.27c-.59-.19-1.15-.26-1.67-.26-4.28,0-6.84,4.65-6.84,11.08v4.54h-3.35v-18.59Z"/>
  <text class="cls-7" transform="translate(241.48 254.61)"><tspan x="0" y="0">z</tspan></text>
  <text class="cls-3" transform="translate(270.3 254.61)"><tspan x="0" y="0">ë</tspan></text>
  <text class="cls-3" transform="translate(290.75 254.61)"><tspan x="0" y="0"> </tspan></text>
  <text class="cls-7" transform="translate(299.08 254.61)"><tspan x="0" y="0">D</tspan></text>
  <text class="cls-3" transform="translate(321.84 254.61)"><tspan x="0" y="0">IN</tspan></text>
  <text class="cls-3" transform="translate(357.39 254.61)"><tspan x="0" y="0">A</tspan></text>
  <text class="cls-3" transform="translate(381.48 254.61)"><tspan x="0" y="0">R</tspan></text>
  <text class="cls-7" transform="translate(406.1 254.61)"><tspan x="0" y="0">A</tspan></text>
  <text class="cls-3" transform="translate(433.99 254.61)"><tspan x="0" y="0">MA</tspan></text>
  <text class="cls-7" transform="translate(490.36 254.61)"><tspan x="0" y="0">: </tspan></text>
  <text class="cls-3" transform="translate(137.32 292.65)"><tspan x="0" y="0">L</tspan></text>
  <text class="cls-7" transform="translate(157.59 292.65)"><tspan x="0" y="0">U</tspan></text>
  <text class="cls-3" transform="translate(199.31 292.65)"><tspan x="0" y="0">LEBOR</tspan><tspan class="cls-13" x="118.77" y="0">A</tspan><tspan x="141.86" y="0"> </tspan></text>
  <text class="cls-7" transform="translate(349.5 292.65)"><tspan x="0" y="0">N</tspan></text>
  <text class="cls-3" transform="translate(375.49 292.65)"><tspan x="0" y="0">U</tspan><tspan class="cls-22" x="25.99" y="0">K</tspan><tspan x="48.12" y="0">ÇE</tspan></text>
  <text class="cls-7" transform="translate(471.39 292.65)"><tspan x="0" y="0">L</tspan></text>
  <text class="cls-3" transform="translate(492.07 292.65)"><tspan x="0" y="0" xml:space="preserve"> M</tspan></text>
  <text class="cls-7" transform="translate(529.7 292.65)"><tspan x="0" y="0">Ë</tspan></text>
  <text class="cls-3" transform="translate(563.58 292.65)"><tspan x="0" y="0">.</tspan></text>
  <text class="cls-3" transform="translate(122.86 337.27)"><tspan x="0" y="0">E</tspan></text>
  <text class="cls-7" transform="translate(144.5 337.27)"><tspan x="0" y="0">m</tspan></text>
  <text class="cls-3" transform="translate(169.19 337.27)"><tspan x="0" y="0">ERGING</tspan><tspan class="cls-13" x="136.32" y="0"> </tspan><tspan class="cls-29" x="143.64" y="0">A</tspan><tspan x="167.29" y="0">SS</tspan></text>
  <text class="cls-7" transform="translate(383.97 337.27)"><tspan x="0" y="0">E</tspan></text>
  <text class="cls-7" transform="translate(401.04 337.27)"><tspan x="0" y="0">M</tspan></text>
  <text class="cls-3" transform="translate(442.76 337.27)"><tspan x="0" y="0">B</tspan></text>
  <text class="cls-3" transform="translate(467.27 337.27)"><tspan x="0" y="0">L</tspan></text>
  <text class="cls-3" transform="translate(488.65 337.27)"><tspan x="0" y="0">A</tspan></text>
  <text class="cls-7" transform="translate(512.75 337.27)"><tspan x="0" y="0">g</tspan></text>
  <text class="cls-3" transform="translate(532.94 337.27)"><tspan x="0" y="0">ES</tspan></text>
  <text class="cls-7" transform="translate(578.34 337.27)"><tspan x="0" y="0">.</tspan></text>
  <text class="cls-1" transform="translate(293.54 433.88)"><tspan class="cls-20" x="0" y="0">V</tspan><tspan class="cls-10" x="18.61" y="0">en</tspan></text>
  <text class="cls-5" transform="translate(348.71 433.88)"><tspan x="0" y="0">U</tspan></text>
  <text class="cls-1" transform="translate(385.74 433.88)"><tspan x="0" y="0">e</tspan></text>
  <text class="cls-5" transform="translate(403.89 433.88)"><tspan x="0" y="0">:</tspan></text>
  <text class="cls-1" transform="translate(411.11 433.88)"><tspan x="0" y="0"> </tspan></text>
  <text class="cls-1" transform="translate(156.12 473.48)"><tspan x="0" y="0">Ar</tspan></text>
  <text class="cls-5" transform="translate(189.16 473.48)"><tspan x="0" y="0">s</tspan></text>
  <text class="cls-1" transform="translate(207.83 473.48)"><tspan x="0" y="0">enale</tspan></text>
  <text class="cls-5" transform="translate(287.73 473.48)"><tspan x="0" y="0">,</tspan></text>
  <text class="cls-1" transform="translate(294.06 473.48)"><tspan x="0" y="0" xml:space="preserve"> S</tspan></text>
  <text class="cls-5" transform="translate(322.54 473.48)"><tspan x="0" y="0">e</tspan></text>
  <text class="cls-1" transform="translate(341.25 473.48)"><tspan class="cls-25" x="0" y="0">s</tspan><tspan x="15.91" y="0">tie</tspan><tspan class="cls-15" x="51.51" y="0">r</tspan><tspan x="62.5" y="0">e Ca</tspan><tspan class="cls-25" x="129.06" y="0">s</tspan><tspan class="cls-24" x="144.97" y="0">t</tspan><tspan x="154.9" y="0">e</tspan></text>
  <text class="cls-5" transform="translate(514.27 473.48)"><tspan x="0" y="0">ll</tspan></text>
  <text class="cls-1" transform="translate(529.72 473.48)"><tspan x="0" y="0">o</tspan></text>
  <text class="cls-5" transform="translate(12.54 513.08)"><tspan x="0" y="0">C</tspan></text>
  <text class="cls-1" transform="translate(45.21 513.08)"><tspan x="0" y="0">am</tspan></text>
  <text class="cls-5" transform="translate(91.67 513.08)"><tspan x="0" y="0">p</tspan></text>
  <text class="cls-1" transform="translate(114.68 513.08)"><tspan x="0" y="0">o della </tspan></text>
  <text class="cls-5" transform="translate(218.1 513.08)"><tspan x="0" y="0">T</tspan></text>
  <text class="cls-1" transform="translate(242.25 513.08)"><tspan x="0" y="0">ana</tspan></text>
  <text class="cls-5" transform="translate(296.34 513.08)"><tspan x="0" y="0" xml:space="preserve"> 2169</tspan></text>
  <text class="cls-1" transform="translate(369.53 513.08)"><tspan x="0" y="0">/</tspan><tspan class="cls-12" x="13.86" y="0">F</tspan><tspan class="cls-23" x="28.91" y="0">,</tspan><tspan x="35.28" y="0" xml:space="preserve"> 301</tspan></text>
  <text class="cls-5" transform="translate(461.37 513.08)"><tspan x="0" y="0">2</tspan></text>
  <text class="cls-1" transform="translate(481.04 513.08)"><tspan x="0" y="0">2</tspan><tspan class="cls-16" x="17.49" y="0"> </tspan><tspan class="cls-19" x="24.12" y="0">V</tspan><tspan x="42.74" y="0">en</tspan></text>
  <text class="cls-5" transform="translate(560.3 513.08)"><tspan x="0" y="0">i</tspan></text>
  <path class="cls-6" d="M573.5,504.83c0-5.08,3.14-8.65,8.19-8.65,4.19,0,6.57,2.51,7.23,5.64l-2.77.53c-.5-1.91-1.49-3.8-4.46-3.8-1.88,0-3.07.56-3.83,1.55-.83,1.12-1.09,2.77-1.09,4.72,0,3.73.92,6.27,4.92,6.27,2.54,0,3.86-.99,4.49-3.37l2.81.3c-.59,3.33-3.47,5.45-7.29,5.45-5.05,0-8.19-3.23-8.19-8.65ZM593.07,511.07c-1.39-1.55-2.01-3.7-2.01-6.27s.69-4.59,2.08-6.14c1.45-1.65,3.47-2.48,5.84-2.48,2.61,0,5.08,1.12,6.44,3.27.99,1.58,1.52,3.93,1.39,6.27h-12.51c.07,3.63,1.58,5.38,4.69,5.38,2.81,0,4.32-1.19,4.72-3.7l2.87.23c-.73,3.86-3.37,5.84-7.56,5.84-2.54,0-4.52-.76-5.94-2.41ZM603.77,503.31c-.03-.89-.36-2.15-.89-2.94-.86-1.25-2.08-1.78-3.86-1.78s-3.23.69-3.89,1.78c-.59.99-.79,2.11-.79,2.94h9.44ZM611.52,513.08h-1.55v-3.56h3.33v3.63c0,2.34-1.22,3.86-3.3,4.26v-1.65c.73-.26,1.49-.86,1.52-2.67ZM624.49,489.98h3v23.1h-3v-23.1ZM633.17,509.39v-10.33h-2.38v-2.48h2.38v-4.59h2.94v4.59h3.37v2.48h-3.37v10.23c0,1.09.5,1.29,1.72,1.29.36,0,.99-.07,1.52-.17l.07,2.67c-.53.1-1.22.17-1.82.17-3.07,0-4.42-1.19-4.42-3.86ZM641.19,504.83c0-5.38,3.2-8.68,7.59-8.68,2.21,0,3.99.96,5.21,2.84v-2.41h2.97v16.5h-2.97v-2.15c-1.25,1.75-3,2.54-5.31,2.54-4.46,0-7.49-3.43-7.49-8.65ZM649.37,511.1c1.45,0,2.48-.43,3.2-1.12,1.22-1.22,1.52-3.23,1.52-5.18,0-4.16-1.62-6.3-4.79-6.3-1.72,0-2.84.5-3.6,1.35-.96,1.09-1.25,2.84-1.25,4.98,0,3.96,1.22,6.27,4.92,6.27ZM661.32,489.98h2.97v23.1h-2.97v-23.1Z"/>
  <text class="cls-5" transform="translate(666.46 513.08)"><tspan x="0" y="0">Y</tspan></text>
  <text class="cls-1" transform="translate(94.68 28.05)"><tspan x="0" y="0">P</tspan></text>
  <text class="cls-5" transform="translate(115.17 28.05)"><tspan x="0" y="0">a</tspan></text>
  <text class="cls-1" transform="translate(134.31 28.05)"><tspan x="0" y="0">vili</tspan></text>
  <text class="cls-5" transform="translate(172.26 28.05)"><tspan x="0" y="0">O</tspan></text>
  <text class="cls-1" transform="translate(205.1 28.05)"><tspan x="0" y="0">n </tspan><tspan class="cls-27" x="25.84" y="0">o</tspan><tspan class="cls-17" x="44.32" y="0">f</tspan><tspan x="53.72" y="0" xml:space="preserve"> the </tspan><tspan class="cls-33" x="115.23" y="0">R</tspan><tspan x="136.82" y="0">epublic </tspan><tspan class="cls-28" x="251.32" y="0">o</tspan><tspan class="cls-17" x="269.8" y="0">f</tspan><tspan class="cls-9" x="279.21" y="0"> </tspan></text>
  <text class="cls-5" transform="translate(491.6 28.05)"><tspan x="0" y="0">K</tspan></text>
  <text class="cls-1" transform="translate(512.75 28.05)"><tspan x="0" y="0">o</tspan></text>
  <text class="cls-5" transform="translate(531.6 28.05)"><tspan x="0" y="0">s</tspan></text>
  <text class="cls-1" transform="translate(550.28 28.05)"><tspan class="cls-31" x="0" y="0">o</tspan><tspan class="cls-30" x="18.55" y="0">v</tspan><tspan x="34.19" y="0">o</tspan></text>
  <text class="cls-1" transform="translate(0 67.65)"><tspan x="0" y="0">T</tspan></text>
  <text class="cls-5" transform="translate(18.91 67.65)"><tspan x="0" y="0">H</tspan></text>
  <text class="cls-1" transform="translate(39.96 67.65)"><tspan x="0" y="0">e 1</tspan></text>
  <text class="cls-5" transform="translate(74.81 67.65)"><tspan class="cls-11" x="0" y="0">9</tspan><tspan x="25.15" y="0">t</tspan></text>
  <text class="cls-1" transform="translate(110.72 67.65)"><tspan x="0" y="0">h I</tspan><tspan class="cls-26" x="34.32" y="0">n</tspan><tspan x="52.63" y="0">t</tspan></text>
  <text class="cls-5" transform="translate(173.45 67.65)"><tspan x="0" y="0">er</tspan></text>
  <text class="cls-1" transform="translate(212.09 67.65)"><tspan x="0" y="0">n</tspan><tspan class="cls-24" x="18.45" y="0">a</tspan><tspan x="36.07" y="0">tional</tspan><tspan class="cls-14" x="115.96" y="0"> </tspan><tspan x="122.46" y="0">A</tspan><tspan class="cls-18" x="143.84" y="0">r</tspan><tspan x="154.87" y="0">ch</tspan></text>
  <text class="cls-5" transform="translate(402.9 67.65)"><tspan x="0" y="0">I</tspan></text>
  <text class="cls-1" transform="translate(440.45 67.65)"><tspan class="cls-24" x="0" y="0">t</tspan><tspan x="9.93" y="0">e</tspan></text>
  <text class="cls-5" transform="translate(468.5 67.65)"><tspan x="0" y="0">ct</tspan></text>
  <text class="cls-1" transform="translate(496.75 67.65)"><tspan x="0" y="0">u</tspan><tspan class="cls-15" x="18.45" y="0">r</tspan><tspan x="29.44" y="0">e E</tspan></text>
  <text class="cls-5" transform="translate(570.93 67.65)"><tspan x="0" y="0">x</tspan></text>
  <path class="cls-6" d="M593.11,44.55h2.97v9.08c.92-1.98,2.77-2.87,5.08-2.87,2.18,0,3.73.59,4.92,1.85,1.25,1.35,1.29,3.43,1.29,5.18v9.87h-3.07v-9.7c0-1.52.03-2.81-.99-3.76-.92-.92-2.01-.96-2.94-.96-1.49,0-4.29.36-4.29,5.15v9.27h-2.97v-23.1ZM611.56,44.55h2.97v3.5h-2.97v-3.5ZM611.56,51.15h2.97v16.5h-2.97v-16.5ZM621.85,65.24v2.41h-2.97v-23.1h2.97v8.75c1.25-1.75,3-2.57,5.31-2.57,4.46,0,7.49,3.47,7.49,8.68s-3.2,8.65-7.59,8.65c-2.21,0-3.99-.92-5.21-2.81ZM626.54,65.77c1.68,0,2.84-.5,3.6-1.35.96-1.12,1.25-2.84,1.25-5.02,0-3.96-1.22-6.34-4.92-6.34-1.75,0-2.87.63-3.56,1.58-.92,1.22-1.16,3.04-1.16,4.79,0,4.16,1.62,6.34,4.79,6.34ZM638.06,44.55h2.97v3.5h-2.97v-3.5ZM638.06,51.15h2.97v16.5h-2.97v-16.5ZM646.31,63.95v-10.33h-2.38v-2.48h2.38v-4.59h2.94v4.59h3.37v2.48h-3.37v10.23c0,1.09.5,1.29,1.72,1.29.36,0,.99-.07,1.52-.17l.07,2.67c-.53.1-1.22.17-1.82.17-3.07,0-4.42-1.19-4.42-3.86ZM655.51,44.55h2.97v3.5h-2.97v-3.5ZM655.51,51.15h2.97v16.5h-2.97v-16.5ZM661.85,59.4c0-5.02,3.14-8.65,8.25-8.65s8.22,3.66,8.22,8.65-3.27,8.65-8.22,8.65-8.25-3.27-8.25-8.65ZM666.5,64.45c.79.83,1.95,1.25,3.6,1.25s2.87-.5,3.66-1.39c.96-1.09,1.35-2.77,1.35-4.92s-.4-3.86-1.39-4.95c-.79-.86-1.95-1.35-3.63-1.35s-2.81.43-3.6,1.25c-1.06,1.09-1.45,2.84-1.45,5.05s.4,3.96,1.45,5.05ZM681.68,51.15h2.97v2.51c.83-1.85,2.44-2.9,5.08-2.9,2.18,0,3.73.59,4.92,1.85,1.25,1.35,1.29,3.5,1.29,5.25v9.8h-3.07v-9.64c0-1.52.03-2.87-.99-3.83-.92-.92-2.01-.96-2.94-.96-1.45,0-4.29.59-4.29,5.31v9.11h-2.97v-16.5Z"/>
  <text class="cls-5" transform="translate(159.29 107.25)"><tspan x="0" y="0">- L</tspan></text>
  <text class="cls-1" transform="translate(196.48 107.25)"><tspan x="0" y="0">a Bien</tspan></text>
  <text class="cls-5" transform="translate(287.36 107.25)"><tspan x="0" y="0">n</tspan></text>
  <text class="cls-1" transform="translate(309.77 107.25)"><tspan x="0" y="0">a</tspan></text>
  <text class="cls-5" transform="translate(327.59 107.25)"><tspan x="0" y="0">l</tspan></text>
  <text class="cls-1" transform="translate(335.31 107.25)"><tspan x="0" y="0">e d</tspan></text>
  <text class="cls-5" transform="translate(380.03 107.25)"><tspan x="0" y="0">i</tspan></text>
  <text class="cls-1" transform="translate(392.04 107.25)"><tspan x="0" y="0"> </tspan></text>
  <text class="cls-5" transform="translate(399.43 107.25)"><tspan x="0" y="0">V</tspan></text>
  <text class="cls-1" transform="translate(433.22 107.25)"><tspan x="0" y="0">ene</tspan></text>
  <text class="cls-5" transform="translate(487.97 107.25)"><tspan x="0" y="0">z</tspan></text>
  <text class="cls-1" transform="translate(513.55 107.25)"><tspan x="0" y="0">ia</tspan></text>
  <text class="cls-5" transform="translate(264.3 146.85)"><tspan x="0" y="0">1</tspan></text>
  <text class="cls-1" transform="translate(274.3 146.85)"><tspan x="0" y="0">0</tspan></text>
  <text class="cls-5" transform="translate(293.67 146.85)"><tspan x="0" y="0">.</tspan></text>
  <text class="cls-4" transform="translate(299.48 146.85) scale(1 1.01)"><tspan x="0" y="0">0</tspan></text>
  <text class="cls-2" transform="translate(319.96 146.85) scale(1 1.01)"><tspan x="0" y="0">5</tspan></text>
  <text class="cls-1" transform="translate(337.41 146.85)"><tspan x="0" y="0" xml:space="preserve"> – </tspan><tspan class="cls-32" x="34.48" y="0">2</tspan><tspan x="51.71" y="0">4</tspan><tspan class="cls-21" x="68.97" y="0">.</tspan><tspan class="cls-8" x="74.32" y="0">1</tspan></text>
  <text class="cls-5" transform="translate(423.63 146.85)"><tspan x="0" y="0">1</tspan></text>
  <text class="cls-1" transform="translate(433.63 146.85)"><tspan x="0" y="0"> </tspan></text>
</svg>